<svg xmlns="http://www.w3.org/2000/svg" viewBox="0 0 400 300">
  <defs>
    <linearGradient id="bg" x1="0%" y1="0%" x2="100%" y2="100%">
      <stop offset="0%" style="stop-color:#1a2e0a"/>
      <stop offset="100%" style="stop-color:#14401a"/>
    </linearGradient>
    <linearGradient id="tank1" x1="0%" y1="0%" x2="0%" y2="100%">
      <stop offset="0%" style="stop-color:#4ade80"/>
      <stop offset="100%" style="stop-color:#16a34a"/>
    </linearGradient>
    <linearGradient id="conveyor" x1="0%" y1="0%" x2="100%" y2="0%">
      <stop offset="0%" style="stop-color:#374151"/>
      <stop offset="100%" style="stop-color:#1f2937"/>
    </linearGradient>
  </defs>
  <rect width="400" height="300" fill="url(#bg)"/>

  <!-- Background grid -->
  <line x1="0" y1="75" x2="400" y2="75" stroke="#ffffff06" stroke-width="1"/>
  <line x1="0" y1="150" x2="400" y2="150" stroke="#ffffff06" stroke-width="1"/>
  <line x1="0" y1="225" x2="400" y2="225" stroke="#ffffff06" stroke-width="1"/>
  <line x1="100" y1="0" x2="100" y2="300" stroke="#ffffff04" stroke-width="1"/>
  <line x1="200" y1="0" x2="200" y2="300" stroke="#ffffff04" stroke-width="1"/>
  <line x1="300" y1="0" x2="300" y2="300" stroke="#ffffff04" stroke-width="1"/>

  <!-- Large mixing tank left -->
  <rect x="30" y="70" width="90" height="130" rx="10" fill="#1c3a12" stroke="#4ade80" stroke-width="1.5"/>
  <rect x="38" y="110" width="74" height="80" rx="4" fill="url(#tank1)" opacity="0.2"/>
  <rect x="38" y="150" width="74" height="40" rx="4" fill="url(#tank1)" opacity="0.35"/>
  <!-- Tank top dome -->
  <ellipse cx="75" cy="70" rx="45" ry="12" fill="#2d5a1b" stroke="#4ade80" stroke-width="1"/>
  <!-- Agitator -->
  <line x1="75" y1="70" x2="75" y2="185" stroke="#86efac" stroke-width="2"/>
  <line x1="55" y1="140" x2="95" y2="140" stroke="#86efac" stroke-width="3"/>
  <line x1="58" y1="155" x2="92" y2="155" stroke="#86efac" stroke-width="2.5"/>
  <!-- Tank label -->
  <text x="75" y="92" text-anchor="middle" font-size="9" fill="#86efac" font-family="monospace">MIX</text>
  <!-- Pipe out -->
  <rect x="118" y="170" width="30" height="8" rx="3" fill="#374151"/>

  <!-- Middle processing unit -->
  <rect x="148" y="100" width="104" height="110" rx="8" fill="#1c2910" stroke="#a3e635" stroke-width="1.5"/>
  <!-- Windows/sight glasses -->
  <circle cx="175" cy="130" r="18" fill="#0a1a04" stroke="#4ade80" stroke-width="1"/>
  <circle cx="175" cy="130" r="12" fill="#052e16" opacity="0.8"/>
  <circle cx="175" cy="130" r="6" fill="#4ade80" opacity="0.3"/>
  <circle cx="225" cy="130" r="18" fill="#0a1a04" stroke="#4ade80" stroke-width="1"/>
  <circle cx="225" cy="130" r="12" fill="#052e16" opacity="0.8"/>
  <circle cx="225" cy="130" r="6" fill="#a3e635" opacity="0.3"/>
  <!-- Pipes top -->
  <rect x="170" y="78" width="8" height="24" rx="3" fill="#475569"/>
  <rect x="220" y="78" width="8" height="24" rx="3" fill="#475569"/>
  <!-- Output pipe -->
  <rect x="250" y="168" width="30" height="8" rx="3" fill="#374151"/>
  <!-- Temp display -->
  <rect x="162" y="160" width="76" height="36" rx="4" fill="#0a1a04"/>
  <text x="200" y="176" text-anchor="middle" font-size="8" fill="#a3e635" font-family="monospace">TEMP: 72°C</text>
  <text x="200" y="188" text-anchor="middle" font-size="8" fill="#4ade80" font-family="monospace">FLOW: OK</text>

  <!-- Conveyor + bottles right -->
  <rect x="278" y="208" width="102" height="10" rx="4" fill="url(#conveyor)"/>
  <!-- Bottle 1 -->
  <rect x="285" y="170" width="18" height="40" rx="5" fill="#1c3a12" stroke="#4ade80" stroke-width="1"/>
  <rect x="288" y="185" width="12" height="20" rx="2" fill="#4ade80" opacity="0.4"/>
  <rect x="288" y="167" width="12" height="5" rx="2" fill="#86efac"/>
  <!-- Bottle 2 -->
  <rect x="315" y="172" width="18" height="38" rx="5" fill="#1c3a12" stroke="#a3e635" stroke-width="1"/>
  <rect x="318" y="186" width="12" height="18" rx="2" fill="#a3e635" opacity="0.4"/>
  <rect x="318" y="169" width="12" height="5" rx="2" fill="#d9f99d"/>
  <!-- Bottle 3 -->
  <rect x="345" y="175" width="18" height="35" rx="5" fill="#1c3a12" stroke="#4ade80" stroke-width="1"/>
  <rect x="348" y="189" width="12" height="16" rx="2" fill="#4ade80" opacity="0.3"/>
  <rect x="348" y="172" width="12" height="5" rx="2" fill="#86efac"/>

  <!-- Filling nozzle -->
  <rect x="318" y="140" width="8" height="30" rx="3" fill="#4ade80"/>
  <rect x="308" y="136" width="28" height="6" rx="3" fill="#374151"/>
  <!-- Liquid drop -->
  <ellipse cx="322" cy="174" rx="3" ry="5" fill="#a3e635" opacity="0.7"/>

  <!-- Steam/vapour -->
  <path d="M75 58 Q80 45 75 35 Q70 25 75 15" stroke="#86efac" stroke-width="1.5" fill="none" opacity="0.4"/>
  <path d="M88 55 Q93 42 88 32 Q83 22 88 12" stroke="#86efac" stroke-width="1" fill="none" opacity="0.3"/>

  <!-- Glowing particles -->
  <circle cx="140" cy="40" r="2" fill="#4ade80" opacity="0.4"/>
  <circle cx="270" cy="55" r="1.5" fill="#a3e635" opacity="0.5"/>
  <circle cx="380" cy="45" r="2" fill="#4ade80" opacity="0.3"/>

</svg>
